<?xml version="1.0" encoding="iso-8859-1"?>
<!-- Generator: Adobe Illustrator 19.0.0, SVG Export Plug-In . SVG Version: 6.00 Build 0)  -->
<svg version="1.1" id="Layer_1" xmlns="http://www.w3.org/2000/svg" xmlns:xlink="http://www.w3.org/1999/xlink" x="0px" y="0px"
	 viewBox="0 0 488.125 488.125" style="enable-background:new 0 0 488.125 488.125;" xml:space="preserve">
<g transform="translate(0 -540.36)">
	<g>
		<g>
			<path d="M454.5,879.323l-30.1-30.2c-3.8-3.8-10.1-3.9-14-0.1l-20.3,19.6c-4,3.8-4.1,10.1-0.3,14.1c3.8,4,10.1,4.1,14.1,0.3
				l13.2-12.7l16.1,16.1l-20.1,20.2H132.9c-2.7,0-5.2,1-7.1,2.9l-30.9,31c-1.9,1.9-2.9,4.4-2.9,7.1c0,2.7,1.1,5.2,3,7.1l30.9,30.2
				c1.9,1.8,4.4,2.8,7,2.8h239.6l10.3,10.4l-13.3,13.3c-3.9,3.9-3.9,10.2,0,14.1c2,1.9,4.5,2.9,7.1,2.9l0,0c2.6,0,5.2-1,7.1-2.9
				l20.3-20.4c3.9-3.9,3.9-10.2,0-14.1l-20.3-20.4c-1.9-1.8-4.4-2.9-7.1-2.9H136.9l-20.7-20.3l20.9-20.9h280.2c2.7,0,5.2-1,7.1-2.9
				l30.1-30.2C458.4,889.523,458.4,883.223,454.5,879.323z"/>
			<path d="M485.2,940.622l-20.3-20.4c-3.9-3.9-10.2-3.9-14.1,0c-3.9,3.9-3.9,10.2,0,14.1l13.3,13.3l-13.3,13.3
				c-3.9,3.9-3.9,10.2,0,14.1c2,1.9,4.5,2.9,7.1,2.9v0c2.6,0,5.1-1,7-2.8l20.3-20.4C489.1,950.823,489.1,944.523,485.2,940.622z"/>
			<path d="M142.7,1008.422H45.2l-20.7-20.3l16.7-16.7l13.2,13.3c3.9,3.9,10.2,3.9,14.1,0c3.9-3.9,3.9-10.2,0-14.1l-20.3-20.4
				c-1.9-1.8-4.4-2.9-7.1-2.9c-2.7,0-5.2,1-7.1,2.9l-30.9,31c-1.9,1.9-2.9,4.4-2.9,7.1c0,2.7,1.1,5.2,3,7.1l30.8,30.2
				c1.9,1.8,4.4,2.8,7,2.8h101.6c5.6,0,10.1-4.5,10.1-10S148.2,1008.422,142.7,1008.422z"/>
			<path d="M92,885.722h131.6c64.1,0,116.8-49.5,121.7-112.1c35.5-3.8,65-32.3,70.2-69.3c3-19.4-1.1-39-11.2-55.3v0
				c-10.2-16.5-25.9-28.5-44.3-34c-18.5-5.9-38.2-4.6-55.5,3.5c-14.5,6.8-26.5,18-34.5,32.1c-14.2-5.9-29.8-9.1-46.2-9.1
				c-23.5,0-46.5,7-66.5,20.2c-17.3,11.4-31.3,26.9-41,45c-8.5-2.5-17.1-3.5-23.4-4c-0.3,0-0.6,0-0.8,0c-50.8,0-92.1,41.1-92.1,91.5
				c0,24.7,9.6,47.8,26.9,65C44.2,876.322,67.3,885.722,92,885.722z M354.2,634.122c0.1,0,0.1,0,0.2,0.1
				c28.3,8.3,45.8,36.6,41.6,67.3h0c-3.8,27.2-24.8,48.3-50.4,52c-3.4-39.6-25.6-73.9-57.7-93.8
				C301.4,636.522,328.1,625.822,354.2,634.122z M91.9,722.722c7.1,0.6,17.3,1.9,25.5,5.6c2.4,1.1,5.2,1.2,7.7,0.2s4.5-2.9,5.6-5.3
				c16.2-36.9,53.6-61.7,93.2-61.7c56.3,0,102.1,46,102.1,102.5c0,56.1-45.8,101.7-102.1,101.7H92.3c-40.4,0-72.1-31.4-72.1-71.5
				C20.2,754.922,52.3,722.922,91.9,722.722z"/>
			<path d="M336,590.622c5.5,0,10-4.5,10-10v-30.2c0-5.5-4.5-10-10-10s-10,4.5-10,10v30.2C326,586.122,330.5,590.622,336,590.622z"
				/>
			<path d="M417.3,620.722c2.5,0,5.1-0.9,7-2.9l19.5-19.6c3.9-3.9,3.9-10.2,0-14.1c-3.9-3.9-10.2-3.9-14.1,0l-19.5,19.6
				c-3.9,3.9-3.9,10.2,0,14.1C412.2,619.722,414.7,620.722,417.3,620.722z"/>
			<path d="M410.2,767.622c-3.9,3.9-3.9,10.2,0,14.1l19.5,19.6c2,1.9,4.5,2.9,7.1,2.9c2.5,0,5.1-1,7-2.9c3.9-3.9,3.9-10.2,0-14.1
				l-19.5-19.6C420.4,763.722,414.1,763.722,410.2,767.622z"/>
			<path d="M437.3,682.522c0,5.5,4.5,10,10,10h30.1c5.5,0,10-4.5,10-10s-4.5-10-10-10h-30.1
				C441.8,672.522,437.3,677.022,437.3,682.522z"/>
			<path d="M247.9,617.922c1.9,1.9,4.4,2.8,6.9,2.8c2.6,0,5.2-1,7.2-3.1c3.8-3.9,3.7-10.3-0.3-14.1l-20.3-19.6
				c-3.9-3.8-10.3-3.7-14.1,0.3c-3.8,3.9-3.7,10.3,0.3,14.1L247.9,617.922z"/>
		</g>
	</g>
</g>
<g>
</g>
<g>
</g>
<g>
</g>
<g>
</g>
<g>
</g>
<g>
</g>
<g>
</g>
<g>
</g>
<g>
</g>
<g>
</g>
<g>
</g>
<g>
</g>
<g>
</g>
<g>
</g>
<g>
</g>
</svg>
