<?xml version="1.0" encoding="iso-8859-1"?>
<!-- Generator: Adobe Illustrator 19.0.0, SVG Export Plug-In . SVG Version: 6.00 Build 0)  -->
<svg version="1.1" id="Layer_1" xmlns="http://www.w3.org/2000/svg" xmlns:xlink="http://www.w3.org/1999/xlink" x="0px" y="0px"
	 viewBox="0 0 482.019 482.019" style="enable-background:new 0 0 482.019 482.019;" xml:space="preserve">
<g transform="translate(0 -540.36)">
	<g>
		<g>
			<path d="M343.677,953.379c-2.4-5-8.4-7-13.4-4.5l-18.6,9.2v-22.2c0-5.5-4.5-10-10-10s-10,4.5-10,10v22.2l-18.6-9.2
				c-5-2.4-10.9-0.4-13.4,4.5c-2.4,5-0.4,10.9,4.5,13.4l14.8,7.3l-14.8,7.3c-5,2.4-7,8.4-4.5,13.4c1.7,3.5,5.3,5.6,9,5.6
				c1.5,0,3-0.3,4.4-1l18.6-9.2v22.2c0,5.5,4.5,10,10,10s10-4.5,10-10v-22.2l18.6,9.2c1.4,0.7,2.9,1,4.4,1c3.7,0,7.2-2,9-5.6
				c2.4-4.9,0.4-10.9-4.5-13.4v0l-14.8-7.3l14.8-7.3C344.177,964.379,346.177,958.379,343.677,953.379z"/>
			<path d="M173.677,981.479L173.677,981.479l-14.7-7.3l14.7-7.3c4.9-2.5,6.9-8.5,4.5-13.4c-2.5-4.9-8.5-6.9-13.4-4.5l-18.1,9v-22.1
				c0-5.5-4.5-10-10-10s-10,4.5-10,10v22.1l-18.1-9c-4.9-2.5-10.9-0.5-13.4,4.5c-2.5,4.9-0.5,10.9,4.5,13.4l14.7,7.3l-14.7,7.3
				c-4.9,2.5-6.9,8.5-4.5,13.4c1.8,3.5,5.3,5.5,9,5.5c1.5,0,3-0.3,4.5-1.1l18.1-9v22.1c0,5.5,4.5,10,10,10s10-4.5,10-10v-22.1
				l18.1,9c1.4,0.7,3,1.1,4.5,1.1c3.7,0,7.2-2,9-5.5C180.677,989.879,178.677,983.879,173.677,981.479z"/>
			<path d="M76.68,905.678c-4.5-3.3-10.7-2.3-14,2.1l-32.6,44c-3.3,4.5-2.3,10.7,2.1,14c1.7,1.4,3.8,2,5.9,2c3.1,0,6.1-1.4,8.1-4.1
				l32.6-44C82.08,915.178,81.08,908.978,76.68,905.678z"/>
			<path d="M252.68,905.678c-4.5-3.3-10.7-2.3-14,2.1l-32.6,44c-3.3,4.5-2.3,10.7,2.1,14c1.7,1.4,3.8,2,5.9,2c3.1,0,6.1-1.4,8.1-4.1
				l32.6-44C258.08,915.178,257.08,908.978,252.68,905.678z"/>
			<path d="M417.28,905.678c-4.5-3.3-10.7-2.3-14,2.1l-32.6,44c-3.3,4.5-2.3,10.7,2.1,14c1.7,1.4,3.8,2,5.9,2c3.1,0,6.1-1.4,8.1-4.1
				l32.6-44C422.68,915.178,421.68,908.978,417.28,905.678z"/>
			<path d="M474.777,675.579L474.777,675.579c-2.3-3.2-6.2-4.7-10.1-3.9c-3.4,0.7-6.2,0.7-10.4,0.7c-43,0-78-35-78-78
				c0-14.4,3.2-26.8,10.2-39.1c1.9-3.3,1.7-7.5-0.5-10.6s-6-4.8-9.8-4.2c-44.6,7.1-78,42.3-83.3,85.7c-14.6-5.5-30.2-8.4-46.2-8.4
				c-48.9,0-93.4,27-115.9,69.6c-8.2-2.4-17.4-3.6-27.5-3.6c-54,0-98,44-98,98s44,98,98,98h143.5c72.5,0,131.5-59,131.5-131.4
				c0-4.2-0.2-8.4-0.6-12.6c4.1,0.4,8.3,0.6,12.6,0.6c35.8,0,67.7-18.7,85.3-50C477.377,682.979,477.077,678.779,474.777,675.579z
				 M246.677,859.779h-143.5c-43,0-78-35-78-78s35-78,78-78c11,0,20.9,1.8,28.4,5.3c2.4,1.1,5.2,1.2,7.7,0.2s4.5-2.9,5.6-5.3
				c17.7-40.2,57.6-66.2,101.7-66.2c53.2,0,97.9,37.2,108.9,86.8c0.1,0.8,0.2,1.6,0.5,2.3c1.4,7,2.1,14.1,2.1,21.5
				C358.177,809.779,308.177,859.779,246.677,859.779z M390.177,716.379L390.177,716.379c-5.7,0-11.1-0.4-16.3-1.2
				c-5.9-22-17.5-42.2-34.3-58.9c-8.3-8.3-17.5-15.3-27.4-21c1.2-31,20.3-57.8,48.2-69.6c-2.7,9.1-4,18.5-4,28.7
				c0,51.4,39.8,93.8,90.3,97.7C432.177,707.579,412.077,716.379,390.177,716.379z"/>
		</g>
	</g>
</g>
<g>
</g>
<g>
</g>
<g>
</g>
<g>
</g>
<g>
</g>
<g>
</g>
<g>
</g>
<g>
</g>
<g>
</g>
<g>
</g>
<g>
</g>
<g>
</g>
<g>
</g>
<g>
</g>
<g>
</g>
</svg>
