<?xml version="1.0" encoding="utf-8"?>

<svg version="1.1" id="Icons" xmlns="http://www.w3.org/2000/svg" xmlns:xlink="http://www.w3.org/1999/xlink" x="0px" y="0px"
	 viewBox="0 0 32 32" style="enable-background:new 0 0 32 32;" xml:space="preserve">
<style type="text/css">
	.st0{fill:none;stroke:#000000;stroke-width:2;stroke-linecap:round;stroke-linejoin:round;stroke-miterlimit:10;}
	.st1{fill:none;stroke:#000000;stroke-width:2;stroke-linejoin:round;stroke-miterlimit:10;}
</style>
<path class="st0" d="M22.42,15c-3.13,0-5.74,2.16-6.41,5.06h0c-2.21,0-4.02,1.79-4.02,3.97S13.81,28,16.02,28h6.4
	c3.63,0,6.58-2.91,6.58-6.5S26.06,15,22.42,15z"/>
<path class="st0" d="M27.71,17.64C28.53,16.29,29,14.7,29,13c0-4.97-4.03-9-9-9c-4.28,0-7.86,2.99-8.77,7H10.5
	C7.48,11,5,13.47,5,16.5S7.48,22,10.5,22H12"/>
</svg>
