<?xml version="1.0" encoding="iso-8859-1"?>
<!-- Generator: Adobe Illustrator 19.0.0, SVG Export Plug-In . SVG Version: 6.00 Build 0)  -->
<svg version="1.1" id="Layer_1" xmlns="http://www.w3.org/2000/svg" xmlns:xlink="http://www.w3.org/1999/xlink" x="0px" y="0px"
	 viewBox="0 0 512 512" style="enable-background:new 0 0 512 512;" xml:space="preserve">
<g>
	<g>
		<path d="M430.865,248.382c2.017-8.847,3.034-17.924,3.034-27.093c0-66.992-54.5-121.492-121.492-121.492
			c-54.157,0-101.941,36.445-116.758,87.814c-4.424-0.686-8.907-1.034-13.411-1.034c-45.055,0-82.203,34.517-86.385,78.496
			c-43.979,4.181-78.496,41.325-78.496,86.385c0,47.847,38.928,86.78,86.78,86.78c4.792,0,8.678-3.879,8.678-8.678
			c0-4.797-3.886-8.678-8.678-8.678c-38.28,0-69.424-31.142-69.424-69.424c0-38.28,31.144-69.424,69.424-69.424
			c4.792,0,8.678-3.879,8.678-8.678c0-38.279,31.144-69.423,69.424-69.423c5.97,0,11.894,0.759,17.61,2.25
			c2.305,0.614,4.742,0.233,6.754-1.009c2.017-1.246,3.436-3.267,3.932-5.585c10.119-47.767,52.966-82.437,101.873-82.437
			c57.419,0,104.136,46.716,104.136,104.136c0,10.97-1.695,21.771-5.038,32.098c-0.839,2.589-0.415,5.419,1.144,7.648
			c1.559,2.229,4.076,3.597,6.792,3.699c42.169,1.534,75.203,35.819,75.203,78.046c0,42.83-34.839,77.867-77.665,78.102
			c-4.792,0.028-8.657,3.877-8.631,8.674c0.025,4.771,3.907,8.57,8.678,8.57c0.017,0,0.03,0,0.047,0
			c52.343,0,94.928-43.053,94.928-95.4C512,294.766,477.148,255.259,430.865,248.382z"/>
	</g>
</g>
<g>
	<g>
		<path d="M172.864,365.516c-0.437-1.042-1.042-2-1.822-2.862c-0.869-0.78-1.737-1.39-2.864-1.822
			c-3.212-1.392-7.03-0.525-9.458,1.822c-0.784,0.862-1.39,1.82-1.826,2.862c-0.432,1.045-0.691,2.169-0.691,3.297
			c0,2.341,0.865,4.511,2.517,6.163c1.648,1.644,3.818,2.515,6.161,2.515c2.343,0,4.513-0.871,6.161-2.515
			c1.648-1.653,2.517-3.822,2.517-6.163C173.559,367.686,173.297,366.561,172.864,365.516z"/>
	</g>
</g>
<g>
	<g>
		<path d="M250.966,365.516c-0.437-1.042-1.042-2-1.822-2.862c-2.432-2.434-6.25-3.214-9.462-1.822
			c-1.038,0.432-1.996,1.042-2.86,1.822c-0.784,0.862-1.39,1.82-1.826,2.862c-0.432,1.045-0.691,2.169-0.691,3.297
			c0,2.341,0.865,4.511,2.517,6.163c1.648,1.644,3.818,2.515,6.161,2.515c2.343,0,4.513-0.871,6.161-2.515
			c1.648-1.653,2.517-3.822,2.517-6.163C251.661,367.686,251.398,366.561,250.966,365.516z"/>
	</g>
</g>
<g>
	<g>
		<path d="M337.746,365.516c-0.437-1.042-1.042-2-1.822-2.862c-0.869-0.78-1.822-1.39-2.864-1.822
			c-3.212-1.392-7.03-0.612-9.458,1.822c-0.784,0.862-1.39,1.82-1.826,2.862c-0.432,1.045-0.691,2.169-0.691,3.297
			c0,2.341,0.865,4.511,2.517,6.163c1.648,1.644,3.818,2.515,6.161,2.515c2.343,0,4.513-0.871,6.161-2.515
			c1.648-1.653,2.517-3.822,2.517-6.163C338.441,367.686,338.178,366.561,337.746,365.516z"/>
	</g>
</g>
<g>
	<g>
		<path d="M214.432,414.722c-3.212-3.214-9.114-3.214-12.322,0c-1.564,1.642-2.517,3.811-2.517,6.159
			c0,1.129,0.259,2.254,0.691,3.299c0.436,1.04,1.042,1.989,1.826,2.864c1.648,1.644,3.818,2.515,6.161,2.515
			c2.343,0,4.513-0.871,6.161-2.515c0.78-0.875,1.385-1.824,1.822-2.864c0.432-1.045,0.695-2.169,0.695-3.299
			C216.949,418.629,215.992,416.364,214.432,414.722z"/>
	</g>
</g>
<g>
	<g>
		<path d="M292.534,414.722c-3.212-3.214-9.115-3.214-12.322,0c-1.564,1.642-2.517,3.811-2.517,6.159
			c0,1.129,0.259,2.254,0.691,3.299c0.437,1.04,1.042,1.989,1.826,2.864c1.648,1.644,3.818,2.515,6.161,2.515
			c2.343,0,4.513-0.871,6.161-2.515c0.78-0.875,1.385-1.824,1.822-2.864c0.432-1.045,0.695-2.169,0.695-3.299
			C295.051,418.629,294.093,416.364,292.534,414.722z"/>
	</g>
</g>
<g>
	<g>
		<path d="M379.314,414.722c-3.212-3.214-9.115-3.214-12.322,0c-1.564,1.642-2.517,3.907-2.517,6.159
			c0,1.129,0.259,2.254,0.691,3.299c0.437,1.04,1.042,1.989,1.826,2.864c1.648,1.644,3.818,2.515,6.161,2.515
			c1.127,0,2.254-0.261,3.297-0.695c1.042-0.432,1.996-1.04,2.864-1.82c0.78-0.875,1.385-1.824,1.822-2.864
			c0.432-1.045,0.695-2.169,0.695-3.299C381.831,418.629,380.873,416.364,379.314,414.722z"/>
	</g>
</g>
<g>
	<g>
		<path d="M155.508,469.652c-0.436-1.042-1.042-2-1.822-2.862c-3.301-3.214-9.026-3.214-12.322,0
			c-0.784,0.862-1.39,1.737-1.826,2.862c-0.432,1.045-0.691,2.169-0.691,3.297c0,2.341,0.865,4.511,2.517,6.163
			c1.648,1.644,3.818,2.515,6.161,2.515c2.343,0,4.513-0.871,6.161-2.515c1.648-1.653,2.517-3.822,2.517-6.163
			C156.203,471.821,155.941,470.697,155.508,469.652z"/>
	</g>
</g>
<g>
	<g>
		<path d="M233.61,469.652c-0.437-1.042-1.042-2-1.822-2.862c-0.869-0.78-1.822-1.39-2.864-1.822
			c-3.212-1.392-7.03-0.612-9.458,1.822c-0.784,0.862-1.39,1.737-1.826,2.862c-0.432,1.045-0.691,2.169-0.691,3.297
			c0,2.341,0.865,4.511,2.517,6.163c0.864,0.78,1.822,1.388,2.86,1.82c1.042,0.517,2.169,0.695,3.301,0.695
			c1.127,0,2.254-0.178,3.297-0.695c1.042-0.432,1.996-1.04,2.864-1.82c1.648-1.653,2.517-3.822,2.517-6.163
			C234.305,471.821,234.132,470.697,233.61,469.652z"/>
	</g>
</g>
<g>
	<g>
		<path d="M203.326,133.136c-11.364-30.322-40.763-50.695-73.157-50.695c-43.064,0-78.102,35.038-78.102,78.102
			c0,23.293,10.284,45.195,28.216,60.093c1.623,1.347,3.589,2.004,5.542,2.004c2.491,0,4.962-1.068,6.678-3.131
			c3.064-3.686,2.559-9.157-1.127-12.22c-13.954-11.593-21.954-28.631-21.954-46.746c0-33.496,27.25-60.746,60.746-60.746
			c25.199,0,48.068,15.847,56.903,39.432c1.682,4.487,6.699,6.759,11.174,5.081C202.733,142.628,205.008,137.628,203.326,133.136z"
			/>
	</g>
</g>
<g>
	<g>
		<path d="M66.882,76.306l-8.678-8.678c-3.39-3.39-8.881-3.39-12.271,0s-3.39,8.881,0,12.271l8.678,8.678
			c1.695,1.695,3.915,2.542,6.136,2.542c2.22,0,4.441-0.847,6.136-2.542C70.271,85.187,70.271,79.695,66.882,76.306z"/>
	</g>
</g>
<g>
	<g>
		<path d="M139.854,30.373c-4.792,0-8.678,3.886-8.678,8.678v17.356c0,4.792,3.886,8.678,8.678,8.678s8.678-3.886,8.678-8.678
			V39.051C148.532,34.259,144.646,30.373,139.854,30.373z"/>
	</g>
</g>
<g>
	<g>
		<path d="M231.763,76.306c-3.39-3.39-8.881-3.39-12.271,0l-8.678,8.678c-3.39,3.39-3.39,8.881,0,12.271
			c1.695,1.695,3.915,2.542,6.136,2.542c2.22,0,4.441-0.847,6.136-2.542l8.678-8.678C235.153,85.187,235.153,79.695,231.763,76.306z
			"/>
	</g>
</g>
<g>
	<g>
		<path d="M26.034,143.074H8.678c-4.792,0-8.678,3.886-8.678,8.678s3.886,8.678,8.678,8.678h17.356c4.792,0,8.678-3.886,8.678-8.678
			S30.826,143.074,26.034,143.074z"/>
	</g>
</g>
<g>
	<g>
		<path d="M58.204,223.831c-3.39-3.39-8.881-3.39-12.271,0l-8.678,8.678c-3.39,3.39-3.39,8.881,0,12.271
			c1.695,1.695,3.915,2.542,6.136,2.542c2.22,0,4.441-0.847,6.136-2.542l8.678-8.678C61.593,232.712,61.593,227.221,58.204,223.831z
			"/>
	</g>
</g>
<g>
</g>
<g>
</g>
<g>
</g>
<g>
</g>
<g>
</g>
<g>
</g>
<g>
</g>
<g>
</g>
<g>
</g>
<g>
</g>
<g>
</g>
<g>
</g>
<g>
</g>
<g>
</g>
<g>
</g>
</svg>
