<?xml version="1.0" encoding="iso-8859-1"?>
<!-- Generator: Adobe Illustrator 19.0.0, SVG Export Plug-In . SVG Version: 6.00 Build 0)  -->
<svg version="1.1" id="Layer_1" xmlns="http://www.w3.org/2000/svg" xmlns:xlink="http://www.w3.org/1999/xlink" x="0px" y="0px"
	 viewBox="0 0 512 512" style="enable-background:new 0 0 512 512;" xml:space="preserve">
<g>
	<g>
		<path d="M428.018,248.115c2.088-9.158,3.14-18.553,3.14-28.044c0-69.342-56.412-125.754-125.754-125.754
			c-56.057,0-105.517,37.724-120.855,90.895c-4.579-0.711-9.219-1.07-13.882-1.07c-46.636,0-85.088,35.728-89.417,81.245
			C35.728,269.719,0,308.167,0,354.807c0,49.526,40.294,89.825,89.825,89.825c4.961,0,8.982-4.015,8.982-8.982
			c0-4.965-4.022-8.982-8.982-8.982c-39.623,0-71.86-32.235-71.86-71.86c0-39.623,32.237-71.86,71.86-71.86
			c4.961,0,8.982-4.015,8.982-8.982c0-39.622,32.237-71.859,71.86-71.859c6.18,0,12.312,0.785,18.228,2.329
			c2.382,0.627,4.904,0.241,6.991-1.044c2.088-1.289,3.557-3.381,4.07-5.781c10.474-49.443,54.825-85.329,105.447-85.329
			c59.434,0,107.789,48.355,107.789,107.789c0,11.355-1.754,22.535-5.215,33.225c-0.869,2.677-0.43,5.607,1.184,7.916
			c1.614,2.307,4.219,3.726,7.031,3.825c43.649,1.594,77.842,37.079,77.842,80.787c0,44.333-36.061,80.599-80.39,80.842
			c-4.961,0.029-8.961,4.013-8.934,8.978c0.026,4.939,4.044,8.871,8.982,8.871c0.017,0,0.031,0,0.048,0
			c54.18,0,98.259-44.564,98.259-98.748C512,296.136,475.926,255.239,428.018,248.115z"/>
	</g>
</g>
<g>
	<g>
		<path d="M160.965,369.36c-0.452-1.164-1.079-2.07-1.886-2.963c-3.417-3.327-9.434-3.327-12.754,0
			c-0.811,0.893-1.439,1.798-1.89,2.963c-0.447,1.081-0.715,2.246-0.715,3.412c0,2.423,0.895,4.669,2.605,6.379
			c0.895,0.807,1.886,1.436,2.96,1.884c1.079,0.535,2.246,0.72,3.417,0.72c2.426,0,4.671-0.901,6.377-2.603
			c1.706-1.711,2.605-3.956,2.605-6.379C161.684,371.605,161.412,370.441,160.965,369.36z"/>
	</g>
</g>
<g>
	<g>
		<path d="M241.807,369.36c-0.452-1.164-1.079-2.07-1.886-2.963c-3.325-3.327-9.342-3.327-12.754,0
			c-0.811,0.893-1.439,1.884-1.89,2.963c-0.447,1.081-0.715,2.246-0.715,3.412c0,2.423,0.895,4.669,2.605,6.379
			c0.895,0.807,1.886,1.436,2.96,1.884c1.079,0.535,2.246,0.72,3.417,0.72c1.167,0,2.333-0.184,3.412-0.72
			c1.079-0.447,2.066-1.077,2.965-1.884c1.706-1.711,2.605-3.956,2.605-6.379C242.526,371.605,242.254,370.441,241.807,369.36z"/>
	</g>
</g>
<g>
	<g>
		<path d="M331.632,369.36c-0.452-1.079-1.079-2.07-1.886-2.963c-3.325-3.327-9.342-3.327-12.754,0
			c-0.811,0.893-1.439,1.798-1.89,2.963c-0.447,1.081-0.715,2.246-0.715,3.412c0,2.423,0.895,4.669,2.605,6.379
			c0.895,0.807,1.886,1.436,2.96,1.884c1.079,0.535,2.246,0.72,3.417,0.72c2.425,0,4.671-0.901,6.377-2.603
			c1.706-1.71,2.605-3.956,2.605-6.379C332.351,371.605,332.079,370.441,331.632,369.36z"/>
	</g>
</g>
<g>
	<g>
		<path d="M203.991,420.292c-2.518-2.52-6.469-3.327-9.794-1.886c-1.167,0.448-2.153,1.079-2.96,1.886
			c-1.618,1.7-2.605,4.044-2.605,6.375c0,1.169,0.268,2.333,0.715,3.414c0.452,1.077,1.079,2.059,1.89,2.965
			c1.706,1.702,3.952,2.603,6.377,2.603c1.167,0,2.333-0.27,3.412-0.719c1.079-0.447,2.066-1.077,2.965-1.884
			c0.807-0.906,1.434-1.888,1.886-2.965c0.447-1.081,0.719-2.246,0.719-3.414C206.596,424.336,205.605,421.991,203.991,420.292z"/>
	</g>
</g>
<g>
	<g>
		<path d="M284.833,420.292c-3.325-3.327-9.434-3.327-12.754,0c-1.618,1.7-2.605,4.044-2.605,6.375c0,1.169,0.268,2.333,0.715,3.414
			c0.452,1.077,1.079,2.059,1.89,2.965c1.706,1.702,3.952,2.603,6.377,2.603c1.167,0,2.333-0.27,3.412-0.719
			c1.079-0.447,2.066-1.077,2.965-1.884c0.807-0.906,1.434-1.888,1.886-2.965c0.447-1.081,0.719-2.246,0.719-3.414
			C287.439,424.336,286.447,421.991,284.833,420.292z"/>
	</g>
</g>
<g>
	<g>
		<path d="M374.658,420.292c-2.518-2.52-6.469-3.327-9.794-1.886c-1.075,0.448-2.066,1.079-2.96,1.886
			c-1.618,1.7-2.605,4.044-2.605,6.375c0,1.169,0.18,2.333,0.715,3.414c0.452,1.077,1.079,2.059,1.89,2.965
			c1.706,1.702,3.952,2.603,6.377,2.603c1.167,0,2.333-0.27,3.412-0.719c1.079-0.447,2.066-1.077,2.965-1.884
			c0.807-0.906,1.434-1.888,1.886-2.965c0.447-1.081,0.719-2.246,0.719-3.414C377.263,424.336,376.272,421.991,374.658,420.292z"/>
	</g>
</g>
<g>
	<g>
		<path d="M143,477.149c-0.452-1.164-1.079-2.07-1.886-2.963c-3.417-3.327-9.434-3.327-12.754,0
			c-0.811,0.893-1.439,1.884-1.89,2.963c-0.447,1.081-0.715,2.246-0.715,3.412c0,1.169,0.268,2.333,0.715,3.414
			c0.452,1.077,1.079,2.059,1.89,2.965c0.895,0.807,1.886,1.436,2.96,1.884c1.079,0.45,2.246,0.719,3.417,0.719
			c1.167,0,2.333-0.27,3.412-0.719c1.079-0.447,2.066-1.077,2.965-1.884c0.807-0.906,1.434-1.888,1.886-2.965
			c0.447-1.081,0.719-2.246,0.719-3.414C143.719,479.395,143.447,478.23,143,477.149z"/>
	</g>
</g>
<g>
	<g>
		<path d="M223.842,477.149c-0.452-1.164-1.079-2.07-1.886-2.963c-3.325-3.327-9.342-3.327-12.754,0
			c-0.811,0.893-1.439,1.798-1.89,2.963c-0.447,1.081-0.715,2.246-0.715,3.412c0,1.169,0.268,2.333,0.715,3.414
			c0.452,1.077,1.079,2.059,1.89,2.965c0.895,0.807,1.886,1.436,2.96,1.884c1.079,0.45,2.246,0.719,3.417,0.719
			c1.167,0,2.333-0.27,3.412-0.719c1.079-0.447,2.066-1.077,2.965-1.884c1.706-1.711,2.605-3.956,2.605-6.379
			C224.561,479.395,224.289,478.23,223.842,477.149z"/>
	</g>
</g>
<g>
	<g>
		<path d="M151.982,117.848c-0.452-1.075-1.079-2.066-1.886-2.961c-0.899-0.811-1.798-1.439-2.965-1.89
			c-3.233-1.346-7.189-0.627-9.79,1.89c-0.811,0.895-1.439,1.794-1.89,2.961c-0.447,1.079-0.715,2.246-0.715,3.417
			c0,2.333,0.987,4.671,2.605,6.377c0.895,0.807,1.886,1.434,2.96,1.886c1.079,0.54,2.246,0.719,3.417,0.719
			c1.167,0,2.333-0.18,3.412-0.719c1.167-0.452,2.066-1.079,2.965-1.886c1.614-1.706,2.605-4.044,2.605-6.377
			C152.702,120.093,152.43,118.927,151.982,117.848z"/>
	</g>
</g>
<g>
	<g>
		<path d="M169.947,37.006c-0.452-1.075-1.079-2.066-1.886-2.961c-0.899-0.811-1.798-1.439-2.965-1.89
			c-3.325-1.434-7.276-0.627-9.79,1.89c-0.811,0.895-1.439,1.886-1.89,2.961c-0.447,1.079-0.715,2.246-0.715,3.417
			c0,0.627,0.088,1.167,0.18,1.794c0.088,0.539,0.268,1.079,0.535,1.618c0.18,0.539,0.452,1.079,0.811,1.618
			c0.36,0.447,0.719,0.895,1.079,1.346c1.706,1.614,4.039,2.605,6.377,2.605c1.167,0,2.333-0.272,3.412-0.719
			c1.167-0.452,2.066-1.079,2.965-1.886c0.36-0.452,0.807-0.899,1.075-1.346c0.36-0.54,0.631-1.079,0.811-1.618
			c0.268-0.54,0.447-1.079,0.54-1.618c0.088-0.627,0.18-1.167,0.18-1.794C170.667,39.251,170.487,38.084,169.947,37.006z"/>
	</g>
</g>
<g>
	<g>
		<path d="M120,159.497c-24.886-20.575-39.158-50.868-39.158-83.123c0-14.373,2.781-28.329,8.268-41.474
			c1.404-3.364,0.636-7.237-1.939-9.812c-2.583-2.579-6.465-3.342-9.811-1.939C30.364,42.76,0,88.335,0,139.251
			c0,39.912,19.241,77.851,51.469,101.482c1.574,1.154,3.438,1.737,5.311,1.737c1.575,0,3.154-0.412,4.566-1.246
			c3.092-1.829,4.803-5.32,4.342-8.886c-0.022-0.18-1.917-18.404,12.522-32.842c16.25-16.25,38.881-24.544,39.105-24.627
			c3.035-1.096,5.255-3.737,5.807-6.912C123.671,164.782,122.487,161.549,120,159.497z M65.509,186.795
			c-9.404,9.404-13.939,19.833-16.075,28.553c-19.934-20.061-31.469-47.487-31.469-76.096c0-36.509,18.211-69.811,47.746-89.566
			c-1.886,8.711-2.833,17.627-2.833,26.689c0,32.89,12.719,64.039,35.311,87.386C88.895,168.466,76.215,176.089,65.509,186.795z"/>
	</g>
</g>
<g>
</g>
<g>
</g>
<g>
</g>
<g>
</g>
<g>
</g>
<g>
</g>
<g>
</g>
<g>
</g>
<g>
</g>
<g>
</g>
<g>
</g>
<g>
</g>
<g>
</g>
<g>
</g>
<g>
</g>
</svg>
