<?xml version="1.0" ?><svg width="24px" height="24px" viewBox="0 0 24 24" xmlns="http://www.w3.org/2000/svg"><defs><style>.cls-1{fill:none;}</style></defs><g id="Artwork"><rect class="cls-1" height="24" width="24"/><path d="M12,8.48A3.52,3.52,0,1,1,8.48,12,3.53,3.53,0,0,1,12,8.48M12,7a5,5,0,1,0,5,5,5,5,0,0,0-5-5Z"/><path d="M12,22a.76.76,0,0,1-.75-.75V18.67a.75.75,0,0,1,1.5,0v2.58A.76.76,0,0,1,12,22Z"/><path d="M22,12a.76.76,0,0,1-.75.75H18.67a.75.75,0,0,1,0-1.5h2.58A.76.76,0,0,1,22,12Z"/><path d="M6.08,12a.76.76,0,0,1-.75.75H2.75a.75.75,0,0,1,0-1.5H5.33A.76.76,0,0,1,6.08,12Z"/><path d="M12,6.08a.76.76,0,0,1-.75-.75V2.75a.75.75,0,0,1,1.5,0V5.33A.76.76,0,0,1,12,6.08Z"/><path d="M4.92,19.07a.75.75,0,0,1,0-1.06l1.82-1.82a.74.74,0,0,1,1.06,0,.75.75,0,0,1,0,1.06L6,19.07A.75.75,0,0,1,4.92,19.07Z"/><path d="M19.06,19.07a.75.75,0,0,1-1.06,0l-1.82-1.82a.75.75,0,0,1,1.06-1.06L19.06,18A.75.75,0,0,1,19.06,19.07Z"/><path d="M7.8,7.81a.75.75,0,0,1-1.06,0L4.92,6a.75.75,0,0,1,0-1.06A.74.74,0,0,1,6,4.93L7.8,6.75A.75.75,0,0,1,7.8,7.81Z"/><path d="M16.18,7.81a.74.74,0,0,1,0-1.06L18,4.93a.74.74,0,0,1,1.06,0,.75.75,0,0,1,0,1.06L17.24,7.81A.75.75,0,0,1,16.18,7.81Z"/></g></svg>