<?xml version="1.0" encoding="iso-8859-1"?>
<!-- Generator: Adobe Illustrator 19.0.0, SVG Export Plug-In . SVG Version: 6.00 Build 0)  -->
<svg version="1.1" id="Capa_1" xmlns="http://www.w3.org/2000/svg" xmlns:xlink="http://www.w3.org/1999/xlink" x="0px" y="0px"
	 viewBox="0 0 59.954 59.954" style="enable-background:new 0 0 59.954 59.954;" xml:space="preserve">
<g>
	<path d="M52.932,17.009C52.701,10.87,47.649,5.943,41.454,5.943c-3.28,0-6.235,1.387-8.332,3.597
		c-3.261-3.194-7.487-5.152-12.046-5.518l-1.075-0.086l-0.005,1.078C19.958,13.246,13.23,19.943,5,19.943
		c-1.138,0-2.318-0.145-3.508-0.43l-1.049-0.252l-0.172,1.065C0.089,21.456,0,22.476,0,23.443c0,3.427,0.921,6.783,2.65,9.758
		c-0.351,0.426-0.682,0.875-0.976,1.359c-3.293,5.419-1.563,12.507,3.855,15.799c0.163,0.099,0.342,0.146,0.519,0.146
		c0.338,0,0.667-0.171,0.855-0.48c0.287-0.472,0.137-1.087-0.335-1.374c-4.477-2.72-5.905-8.575-3.186-13.052
		c2.197-3.614,6.446-5.312,10.489-4.262c0.458,1.471,1.33,2.779,2.547,3.781c0.187,0.153,0.412,0.228,0.635,0.228
		c0.289,0,0.575-0.124,0.772-0.364c0.351-0.426,0.29-1.057-0.136-1.408c-0.855-0.704-1.478-1.611-1.837-2.629l-0.156-0.709
		c-0.4-1.817,0.045-3.679,1.221-5.107c1.041-1.263,2.508-2.003,4.052-2.154c0.459-0.04,0.924-0.038,1.389,0.031
		c-0.284,1.195-0.296,2.446-0.006,3.676c0.108,0.46,0.519,0.771,0.973,0.771c0.076,0,0.153-0.008,0.23-0.026
		c0.538-0.127,0.871-0.665,0.745-1.203c-0.227-0.962-0.212-1.943,0.029-2.874l0.281-0.707c0.618-1.556,1.851-2.766,3.38-3.369
		c0.141-0.054,0.284-0.103,0.429-0.146c0.13-0.04,0.258-0.086,0.392-0.118c0.667-0.157,1.362-0.192,2.065-0.111
		c0.849,0.105,1.672,0.386,2.421,0.85c1.363,0.844,2.315,2.167,2.682,3.728c0.126,0.538,0.662,0.87,1.203,0.745
		c0.538-0.126,0.871-0.665,0.745-1.203c-0.49-2.08-1.76-3.845-3.577-4.97c-0.733-0.454-1.521-0.775-2.336-0.972
		c0.075-1.977,0.749-3.849,1.974-5.433l0.458-0.593c1.738-1.904,4.231-3.107,7.006-3.107c5.094,0,9.253,4.033,9.478,9.073
		c-3.929,0.504-6.978,3.863-6.978,7.927c0,0.552,0.448,1,1,1s1-0.448,1-1c0-3.309,2.691-6,6-6s6,2.691,6,6c0,0.552,0.448,1,1,1
		s1-0.448,1-1C59.954,20.863,56.883,17.494,52.932,17.009z M2.103,21.682C3.082,21.855,4.052,21.943,5,21.943
		c8.957,0,16.342-6.997,16.955-15.813c3.757,0.528,7.222,2.261,9.92,4.963c-1.109,1.667-1.783,3.64-1.891,5.761
		c-0.558,0.012-1.119,0.078-1.676,0.208c-2.08,0.49-3.845,1.76-4.97,3.577c-0.092,0.148-0.17,0.301-0.251,0.453
		c-0.081-0.016-0.163-0.019-0.245-0.032c-0.106-0.018-0.21-0.028-0.316-0.042c-0.252-0.031-0.503-0.055-0.755-0.063
		c-0.176-0.006-0.35-0.003-0.525,0.002c-0.172,0.006-0.343,0.016-0.514,0.034c-0.233,0.022-0.462,0.054-0.691,0.096
		c-0.099,0.019-0.197,0.042-0.296,0.064c-0.284,0.064-0.563,0.14-0.838,0.235c-0.023,0.008-0.045,0.017-0.068,0.026
		c-1.338,0.475-2.561,1.292-3.511,2.446c-1.232,1.496-1.862,3.348-1.816,5.266c-0.665-0.119-1.338-0.181-2.013-0.181
		c-2.761,0-5.353,0.961-7.427,2.73C2.713,29.137,2,26.315,2,23.443C2,22.884,2.034,22.302,2.103,21.682z"/>
	<path d="M32.293,45.312l-3,3c-0.391,0.391-0.391,1.023,0,1.414c0.195,0.195,0.451,0.293,0.707,0.293s0.512-0.098,0.707-0.293l3-3
		c0.391-0.391,0.391-1.023,0-1.414S32.684,44.921,32.293,45.312z"/>
	<path d="M26.293,51.312l-3,3c-0.391,0.391-0.391,1.023,0,1.414c0.195,0.195,0.451,0.293,0.707,0.293s0.512-0.098,0.707-0.293l3-3
		c0.391-0.391,0.391-1.023,0-1.414S26.684,50.921,26.293,51.312z"/>
	<path d="M46.293,39.312l-3,3c-0.391,0.391-0.391,1.023,0,1.414c0.195,0.195,0.451,0.293,0.707,0.293s0.512-0.098,0.707-0.293l3-3
		c0.391-0.391,0.391-1.023,0-1.414S46.684,38.921,46.293,39.312z"/>
	<path d="M40.293,45.312l-3,3c-0.391,0.391-0.391,1.023,0,1.414c0.195,0.195,0.451,0.293,0.707,0.293s0.512-0.098,0.707-0.293l3-3
		c0.391-0.391,0.391-1.023,0-1.414S40.684,44.921,40.293,45.312z"/>
	<path d="M31.707,39.312c-0.391-0.391-1.023-0.391-1.414,0l-3,3c-0.391,0.391-0.391,1.023,0,1.414
		c0.195,0.195,0.451,0.293,0.707,0.293s0.512-0.098,0.707-0.293l3-3C32.098,40.335,32.098,39.702,31.707,39.312z"/>
	<path d="M39.707,39.312c-0.391-0.391-1.023-0.391-1.414,0l-3,3c-0.391,0.391-0.391,1.023,0,1.414
		c0.195,0.195,0.451,0.293,0.707,0.293s0.512-0.098,0.707-0.293l3-3C40.098,40.335,40.098,39.702,39.707,39.312z"/>
	<path d="M25.707,45.312c-0.391-0.391-1.023-0.391-1.414,0l-3,3c-0.391,0.391-0.391,1.023,0,1.414
		c0.195,0.195,0.451,0.293,0.707,0.293s0.512-0.098,0.707-0.293l3-3C26.098,46.335,26.098,45.702,25.707,45.312z"/>
</g>
<g>
</g>
<g>
</g>
<g>
</g>
<g>
</g>
<g>
</g>
<g>
</g>
<g>
</g>
<g>
</g>
<g>
</g>
<g>
</g>
<g>
</g>
<g>
</g>
<g>
</g>
<g>
</g>
<g>
</g>
</svg>
