<?xml version="1.0" encoding="iso-8859-1"?>
<!-- Generator: Adobe Illustrator 19.0.0, SVG Export Plug-In . SVG Version: 6.00 Build 0)  -->
<svg version="1.1" id="Layer_1" xmlns="http://www.w3.org/2000/svg" xmlns:xlink="http://www.w3.org/1999/xlink" x="0px" y="0px"
	 viewBox="0 0 487.063 487.063" style="enable-background:new 0 0 487.063 487.063;" xml:space="preserve">
<g transform="translate(0 -540.36)">
	<g>
		<g>
			<path d="M172.231,904.523l-20.9,20.7c-4,3.8-4,10.2-0.1,14.1c1.9,2,4.5,3,7.1,3c2.6,0,5.1-1,7-2.9l20.9-20.7
				c4-3.8,4-10.2,0.1-14.1C182.531,900.623,176.131,900.623,172.231,904.523z"/>
			<path d="M344.331,904.423l-21.7,20.7c-4,3.8-4.1,10.1-0.3,14.1c1.9,2.1,4.6,3.1,7.2,3.1c2.5,0,5-0.9,6.9-2.8l21.7-20.7
				c4-3.8,4.1-10.1,0.3-14.1C354.631,900.723,348.331,900.623,344.331,904.423z"/>
			<path d="M443.531,904.623c-3.8-4-10.2-4-14.1-0.1l-20.9,20.7c-4,3.8-4,10.2-0.1,14.1c1.9,2,4.5,3,7.1,3c2.5,0,5.1-1,7-2.9
				l20.9-20.7C447.431,914.923,447.431,908.523,443.531,904.623z"/>
			<path d="M87.131,904.423l-21.7,20.7c-4,3.8-4.1,10.1-0.3,14.1c1.9,2.1,4.6,3.1,7.2,3.1c2.5,0,5-0.9,6.9-2.8l21.7-20.7
				c4-3.8,4.1-10.1,0.3-14.1S91.131,900.623,87.131,904.423z"/>
			<path d="M322.531,978.523l-21.7,21.5c-4,3.8-4,10.2-0.1,14.1c1.9,2,4.5,3,7.1,3c2.5,0,5.1-1,7-2.9l21.7-21.5
				c4-3.8,4-10.2,0.1-14.1C332.831,974.623,326.431,974.623,322.531,978.523z"/>
			<path d="M408.531,978.523l-21.7,21.5c-4,3.8-4,10.2-0.1,14.1c1.9,2,4.5,3,7.1,3c2.5,0,5.1-1,7-2.9l21.7-21.5
				c4-3.8,4-10.2,0.1-14.1C418.831,974.623,412.431,974.623,408.531,978.523z"/>
			<path d="M151.331,978.523l-21.7,21.5c-4,3.8-4,10.2-0.1,14.1c1.9,2,4.5,3,7.1,3c2.6,0,5.1-1,7-2.9l21.7-21.5
				c4-3.8,4-10.2,0.1-14.1C161.631,974.623,155.231,974.623,151.331,978.523z"/>
			<path d="M274.031,943.823l-37.6,6.1l36.4-43c3.5-4.2,3-10.5-1.2-14.1c-4.2-3.5-10.5-3-14.1,1.2l-53.8,63.6
				c-2.7,3.2-3.2,7.8-1.1,11.4c2.1,3.7,6.2,5.7,10.3,5l37.9-6.1l-35.9,43.1c-3.5,4.3-2.9,10.6,1.3,14.1c1.9,1.5,4.1,2.3,6.4,2.3
				c2.9,0,5.7-1.2,7.7-3.7l53-63.6c2.7-3.3,3.1-7.8,1-11.4C282.231,945.123,278.131,943.123,274.031,943.823z"/>
			<path d="M65.331,978.523l-21.7,21.5c-4,3.8-4,10.2-0.1,14.1c1.9,2,4.5,3,7.1,3c2.6,0,5.1-1,7-2.9l21.7-21.5
				c4-3.8,4-10.2,0.1-14.1C75.631,974.623,69.231,974.623,65.331,978.523z"/>
			<path d="M401.231,745.823c-2.5-2.8-6.4-4-10.1-3c-14.7,4-28,6-40.7,6c-80.4,0-145.9-63.7-145.9-142c0-17.3,3.6-35.1,10.6-52.8
				c1.4-3.5,0.7-7.6-1.9-10.4c-2.6-2.8-6.5-3.9-10.2-2.9c-34.7,9.9-64.5,30.1-86.1,58.4c-21.5,28.2-32.9,61.7-32.9,96.8
				c0,89.3,74.1,162,165.1,162l0,0c33.1,0,65.3-9.6,92.9-27.9c27.7-18.3,48.8-43.8,61-73.8
				C404.431,752.723,403.731,748.623,401.231,745.823z M249.131,838.023c-80,0-145.1-63.7-145.1-142c0-55.9,34.4-106.6,85.8-129.2
				c-3.5,13.4-5.3,26.8-5.3,40.1c0,89.3,74.4,162,165.9,162c8.2,0,16.5-0.7,25.2-2.1
				C350.031,810.123,301.431,838.023,249.131,838.023z"/>
		</g>
	</g>
</g>
<g>
</g>
<g>
</g>
<g>
</g>
<g>
</g>
<g>
</g>
<g>
</g>
<g>
</g>
<g>
</g>
<g>
</g>
<g>
</g>
<g>
</g>
<g>
</g>
<g>
</g>
<g>
</g>
<g>
</g>
</svg>
