<?xml version="1.0" ?><svg width="24px" height="24px" viewBox="0 0 24 24" xmlns="http://www.w3.org/2000/svg"><defs><style>.cls-1{fill:none;}</style></defs><g id="Artwork"><path d="M20.14,14.84a.58.58,0,0,0-.19,0H19.9l-.25.11h0a8.3,8.3,0,0,1-2.95.53A8.51,8.51,0,0,1,8.17,7a8,8,0,0,1,.39-2.5.79.79,0,0,0,.06-.22,1.1,1.1,0,0,0,0-.18,1,1,0,0,0-1-1,.86.86,0,0,0-.36.07h0L7,3.32A10,10,0,1,0,21,16.39a0,0,0,0,1,0,0l.09-.19a.75.75,0,0,0,0-.16,1.1,1.1,0,0,0,0-.18A1,1,0,0,0,20.14,14.84ZM12,20.5A8.5,8.5,0,0,1,6.83,5.26,9.29,9.29,0,0,0,6.67,7a10,10,0,0,0,12.4,9.71A8.54,8.54,0,0,1,12,20.5Z"/><rect class="cls-1" height="24" width="24"/></g></svg>